# xmcd CD database file
#
# Track frame offsets:
#	150
#	14895
#	28818
#	63533
#	75721
#	89551
#	106131
#	116200
#	140166
#	162289
#	178993
#	201606
#
# Disc length: 2892 seconds
#
# Revision: 0
# Processed by: cddbd v1.5.2PL0 Copyright (c) Steve Scherf et al.
# Submitted via: CDex 1.51
#
DISCID=bb0b4a0c
DTITLE=The Garrison Bros. - Songs And Stories
DYEAR=1980
DGENRE=Country
TTITLE0=Roseville Fair_The Garrison Bros.Songs And Stories
TTITLE1=River Lady_The Garrison Bros.Songs And Stories
TTITLE2=The Orchard_The Garrison Bros.Songs And Stories
TTITLE3=I Would Like To See You Again_The Garrison Bros.Songs And Stories
TTITLE4=Half Mile Of Hell_The Garrison Bros.Songs And Stories
TTITLE5=Silver Sea_The Garrison Bros.Songs And Stories
TTITLE6=A Place In The Chour_The Garrison Bros.Songs And Stories
TTITLE7=Song For The Mira_The Garrison Bros.Songs And Stories
TTITLE8=The Bard_The Garrison Bros.Songs And Stories
TTITLE9=Amarillo_The Garrison Bros.Songs And Stories
TTITLE10=Dublin In The Rare Old Time_The Garrison Bros.Songs And Stories
TTITLE11=Flamingo_The Garrison Bros.Songs And Stories
EXTD=YEAR: 1980
EXTT0=
EXTT1=
EXTT2=
EXTT3=
EXTT4=
EXTT5=
EXTT6=
EXTT7=
EXTT8=
EXTT9=
EXTT10=
EXTT11=
PLAYORDER=
